<?xml version="1.0" standalone="no"?><!DOCTYPE svg PUBLIC "-//W3C//DTD SVG 1.1//EN" "http://www.w3.org/Graphics/SVG/1.1/DTD/svg11.dtd"><svg t="1636710894855" class="icon" viewBox="0 0 1024 1024" version="1.1" xmlns="http://www.w3.org/2000/svg" p-id="2456" width="48" height="48" xmlns:xlink="http://www.w3.org/1999/xlink"><defs><style type="text/css"></style></defs><path d="M1024 645.248v330.752a48 48 0 0 1-48 48H48a48 48 0 0 1-48-48v-330.752a48 48 0 0 1 96 0V928h832v-282.752a48 48 0 0 1 96 0z m-545.152 145.984a47.936 47.936 0 0 0 67.904 0l299.904-299.84a48 48 0 1 0-67.968-67.904l-217.792 217.856V48a48.064 48.064 0 0 0-96.064 0v593.472L246.912 423.552a48 48 0 1 0-67.904 67.904l299.84 299.776z" p-id="2457" fill="#2c2c2c"></path></svg>